# The Great Editor v0.0.1
mtllib navgraph_2.mtl
o walls
v 2.9724 -5.4995 0.1000
v 2.9727 -7.4653 0.1000
v 1.9727 -7.4655 0.1000
v 1.9724 -5.4997 0.1000
vt 0.000 1.000
vt 0.9658 1.000
vt 0.9658 0.000
vt 0.000 0.000
v 1.9727 -7.4655 0.1000
v 1.9724 -5.4997 0.1000
v 2.9724 -5.4995 0.1000
v 2.9727 -7.4653 0.1000
vt 0.000 1.000
vt 0.9658 1.000
vt 0.9658 0.000
vt 0.000 0.000
v 1.9809 -6.4573 0.1000
v 9.4732 -6.5801 0.1000
v 9.4568 -7.5800 0.1000
v 1.9645 -7.4571 0.1000
vt 0.000 1.000
vt 6.4934 1.000
vt 6.4934 0.000
vt 0.000 0.000
v 9.4568 -7.5800 0.1000
v 1.9645 -7.4571 0.1000
v 1.9809 -6.4573 0.1000
v 9.4732 -6.5801 0.1000
vt 0.000 1.000
vt 6.4934 1.000
vt 6.4934 0.000
vt 0.000 0.000
v 8.4510 -7.5574 0.1000
v 8.6392 -0.9700 0.1000
v 9.6388 -0.9985 0.1000
v 9.4506 -7.5859 0.1000
vt 0.000 1.000
vt 5.5901 1.000
vt 5.5901 0.000
vt 0.000 0.000
v 9.6388 -0.9985 0.1000
v 9.4506 -7.5859 0.1000
v 8.4510 -7.5574 0.1000
v 8.6392 -0.9700 0.1000
vt 0.000 1.000
vt 5.5901 1.000
vt 5.5901 0.000
vt 0.000 0.000
vn 0.000 0.000 1.000
s off
g lanes
f 1/1/1 3/3/1 2/2/1
f 1/1/1 4/4/1 3/3/1
f 5/5/1 7/7/1 6/6/1
f 5/5/1 8/8/1 7/7/1
f 9/9/1 11/11/1 10/10/1
f 9/9/1 12/12/1 11/11/1
f 13/13/1 15/15/1 14/14/1
f 13/13/1 16/16/1 15/15/1
f 17/17/1 19/19/1 18/18/1
f 17/17/1 20/20/1 19/19/1
f 21/21/1 23/23/1 22/22/1
f 21/21/1 24/24/1 23/23/1
