# The Great Editor v0.0.1
mtllib navgraph_0.mtl
o walls
v 1.9809 -6.4573 0.1000
v 9.4732 -6.5801 0.1000
v 9.4568 -7.5800 0.1000
v 1.9645 -7.4571 0.1000
vt 0.000 1.000
vt 6.4934 1.000
vt 6.4934 0.000
vt 0.000 0.000
v 9.4568 -7.5800 0.1000
v 1.9645 -7.4571 0.1000
v 1.9809 -6.4573 0.1000
v 9.4732 -6.5801 0.1000
vt 0.000 1.000
vt 6.4934 1.000
vt 6.4934 0.000
vt 0.000 0.000
v 8.4510 -7.5574 0.1000
v 8.6392 -0.9700 0.1000
v 9.6388 -0.9985 0.1000
v 9.4506 -7.5859 0.1000
vt 0.000 1.000
vt 5.5901 1.000
vt 5.5901 0.000
vt 0.000 0.000
v 9.6388 -0.9985 0.1000
v 9.4506 -7.5859 0.1000
v 8.4510 -7.5574 0.1000
v 8.6392 -0.9700 0.1000
vt 0.000 1.000
vt 5.5901 1.000
vt 5.5901 0.000
vt 0.000 0.000
v 9.4771 -6.5842 0.1000
v 9.2931 -14.1296 0.1000
v 8.2934 -14.1052 0.1000
v 8.4774 -6.5598 0.1000
vt 0.000 1.000
vt 6.5477 1.000
vt 6.5477 0.000
vt 0.000 0.000
v 8.2934 -14.1052 0.1000
v 8.4774 -6.5598 0.1000
v 9.4771 -6.5842 0.1000
v 9.2931 -14.1296 0.1000
vt 0.000 1.000
vt 6.5477 1.000
vt 6.5477 0.000
vt 0.000 0.000
v 8.3054 -13.1176 0.1000
v 35.2754 -13.1176 0.1000
v 35.2754 -14.1176 0.1000
v 8.3054 -14.1176 0.1000
vt 0.000 1.000
vt 25.9700 1.000
vt 25.9700 0.000
vt 0.000 0.000
v 35.2754 -14.1176 0.1000
v 8.3054 -14.1176 0.1000
v 8.3054 -13.1176 0.1000
v 35.2754 -13.1176 0.1000
vt 0.000 1.000
vt 25.9700 1.000
vt 25.9700 0.000
vt 0.000 0.000
v 35.2624 -13.1049 0.1000
v 35.4478 -20.3310 0.1000
v 34.4481 -20.3566 0.1000
v 34.2628 -13.1306 0.1000
vt 0.000 1.000
vt 6.2284 1.000
vt 6.2284 0.000
vt 0.000 0.000
v 34.4481 -20.3566 0.1000
v 34.2628 -13.1306 0.1000
v 35.2624 -13.1049 0.1000
v 35.4478 -20.3310 0.1000
vt 0.000 1.000
vt 6.2284 1.000
vt 6.2284 0.000
vt 0.000 0.000
v 21.2338 -12.9657 0.1000
v 21.1119 -20.8306 0.1000
v 20.1120 -20.8151 0.1000
v 20.2339 -12.9502 0.1000
vt 0.000 1.000
vt 6.8658 1.000
vt 6.8658 0.000
vt 0.000 0.000
v 20.1120 -20.8151 0.1000
v 20.2339 -12.9502 0.1000
v 21.2338 -12.9657 0.1000
v 21.1119 -20.8306 0.1000
vt 0.000 1.000
vt 6.8658 1.000
vt 6.8658 0.000
vt 0.000 0.000
v 20.4311 -13.9499 0.1000
v 20.6066 -2.8920 0.1000
v 21.6065 -2.9079 0.1000
v 21.4310 -13.9658 0.1000
vt 0.000 1.000
vt 10.0593 1.000
vt 10.0593 0.000
vt 0.000 0.000
v 21.6065 -2.9079 0.1000
v 21.4310 -13.9658 0.1000
v 20.4311 -13.9499 0.1000
v 20.6066 -2.8920 0.1000
vt 0.000 1.000
vt 10.0593 1.000
vt 10.0593 0.000
vt 0.000 0.000
v 20.6049 -2.8937 0.1000
v 47.2555 -3.2254 0.1000
v 47.2430 -4.2253 0.1000
v 20.5924 -3.8936 0.1000
vt 0.000 1.000
vt 25.6527 1.000
vt 25.6527 0.000
vt 0.000 0.000
v 47.2430 -4.2253 0.1000
v 20.5924 -3.8936 0.1000
v 20.6049 -2.8937 0.1000
v 47.2555 -3.2254 0.1000
vt 0.000 1.000
vt 25.6527 1.000
vt 25.6527 0.000
vt 0.000 0.000
v 9.3883 -13.2556 0.1000
v 8.9546 -20.3205 0.1000
v 7.9565 -20.2592 0.1000
v 8.3902 -13.1943 0.1000
vt 0.000 1.000
vt 6.0782 1.000
vt 6.0782 0.000
vt 0.000 0.000
v 7.9565 -20.2592 0.1000
v 8.3902 -13.1943 0.1000
v 9.3883 -13.2556 0.1000
v 8.9546 -20.3205 0.1000
vt 0.000 1.000
vt 6.0782 1.000
vt 6.0782 0.000
vt 0.000 0.000
v 7.9775 -19.1932 0.1000
v 21.1108 -18.9628 0.1000
v 21.1284 -19.9626 0.1000
v 7.9950 -20.1930 0.1000
vt 0.000 1.000
vt 12.1354 1.000
vt 12.1354 0.000
vt 0.000 0.000
v 21.1284 -19.9626 0.1000
v 7.9950 -20.1930 0.1000
v 7.9775 -19.1932 0.1000
v 21.1108 -18.9628 0.1000
vt 0.000 1.000
vt 12.1354 1.000
vt 12.1354 0.000
vt 0.000 0.000
v 34.4416 -19.3375 0.1000
v 46.7096 -19.4969 0.1000
v 46.6967 -20.4968 0.1000
v 34.4287 -20.3374 0.1000
vt 0.000 1.000
vt 11.2690 1.000
vt 11.2690 0.000
vt 0.000 0.000
v 46.6967 -20.4968 0.1000
v 34.4287 -20.3374 0.1000
v 34.4416 -19.3375 0.1000
v 46.7096 -19.4969 0.1000
vt 0.000 1.000
vt 11.2690 1.000
vt 11.2690 0.000
vt 0.000 0.000
vn 0.000 0.000 1.000
s off
g lanes
f 1/1/1 3/3/1 2/2/1
f 1/1/1 4/4/1 3/3/1
f 5/5/1 7/7/1 6/6/1
f 5/5/1 8/8/1 7/7/1
f 9/9/1 11/11/1 10/10/1
f 9/9/1 12/12/1 11/11/1
f 13/13/1 15/15/1 14/14/1
f 13/13/1 16/16/1 15/15/1
f 17/17/1 19/19/1 18/18/1
f 17/17/1 20/20/1 19/19/1
f 21/21/1 23/23/1 22/22/1
f 21/21/1 24/24/1 23/23/1
f 25/25/1 27/27/1 26/26/1
f 25/25/1 28/28/1 27/27/1
f 29/29/1 31/31/1 30/30/1
f 29/29/1 32/32/1 31/31/1
f 33/33/1 35/35/1 34/34/1
f 33/33/1 36/36/1 35/35/1
f 37/37/1 39/39/1 38/38/1
f 37/37/1 40/40/1 39/39/1
f 41/41/1 43/43/1 42/42/1
f 41/41/1 44/44/1 43/43/1
f 45/45/1 47/47/1 46/46/1
f 45/45/1 48/48/1 47/47/1
f 49/49/1 51/51/1 50/50/1
f 49/49/1 52/52/1 51/51/1
f 53/53/1 55/55/1 54/54/1
f 53/53/1 56/56/1 55/55/1
f 57/57/1 59/59/1 58/58/1
f 57/57/1 60/60/1 59/59/1
f 61/61/1 63/63/1 62/62/1
f 61/61/1 64/64/1 63/63/1
f 65/65/1 67/67/1 66/66/1
f 65/65/1 68/68/1 67/67/1
f 69/69/1 71/71/1 70/70/1
f 69/69/1 72/72/1 71/71/1
f 73/73/1 75/75/1 74/74/1
f 73/73/1 76/76/1 75/75/1
f 77/77/1 79/79/1 78/78/1
f 77/77/1 80/80/1 79/79/1
f 81/81/1 83/83/1 82/82/1
f 81/81/1 84/84/1 83/83/1
f 85/85/1 87/87/1 86/86/1
f 85/85/1 88/88/1 87/87/1
