# The Great Editor v0.0.1
mtllib navgraph_0.mtl
o walls
v 1.2399 -4.3701 0.1000
v 6.7868 -4.4610 0.1000
v 6.7704 -5.4609 0.1000
v 1.2236 -5.3700 0.1000
vt 0.000 1.000
vt 4.5476 1.000
vt 4.5476 0.000
vt 0.000 0.000
v 6.7704 -5.4609 0.1000
v 1.2236 -5.3700 0.1000
v 1.2399 -4.3701 0.1000
v 6.7868 -4.4610 0.1000
vt 0.000 1.000
vt 4.5476 1.000
vt 4.5476 0.000
vt 0.000 0.000
v 5.7646 -5.4383 0.1000
v 5.9050 -0.5253 0.1000
v 6.9046 -0.5538 0.1000
v 6.7642 -5.4668 0.1000
vt 0.000 1.000
vt 3.9150 1.000
vt 3.9150 0.000
vt 0.000 0.000
v 6.9046 -0.5538 0.1000
v 6.7642 -5.4668 0.1000
v 5.7646 -5.4383 0.1000
v 5.9050 -0.5253 0.1000
vt 0.000 1.000
vt 3.9150 1.000
vt 3.9150 0.000
vt 0.000 0.000
v 6.7907 -4.4651 0.1000
v 6.6545 -10.0491 0.1000
v 5.6548 -10.0247 0.1000
v 5.7910 -4.4407 0.1000
vt 0.000 1.000
vt 4.5857 1.000
vt 4.5857 0.000
vt 0.000 0.000
v 5.6548 -10.0247 0.1000
v 5.7910 -4.4407 0.1000
v 6.7907 -4.4651 0.1000
v 6.6545 -10.0491 0.1000
vt 0.000 1.000
vt 4.5857 1.000
vt 4.5857 0.000
vt 0.000 0.000
v 14.1567 -9.9173 0.1000
v 14.2844 -1.8732 0.1000
v 15.2843 -1.8891 0.1000
v 15.1566 -9.9331 0.1000
vt 0.000 1.000
vt 7.0450 1.000
vt 7.0450 0.000
vt 0.000 0.000
v 15.2843 -1.8891 0.1000
v 15.1566 -9.9331 0.1000
v 14.1567 -9.9173 0.1000
v 14.2844 -1.8732 0.1000
vt 0.000 1.000
vt 7.0450 1.000
vt 7.0450 0.000
vt 0.000 0.000
v 14.2827 -1.8749 0.1000
v 33.2471 -2.1110 0.1000
v 33.2346 -3.1109 0.1000
v 14.2702 -2.8748 0.1000
vt 0.000 1.000
vt 17.9659 1.000
vt 17.9659 0.000
vt 0.000 0.000
v 33.2346 -3.1109 0.1000
v 14.2702 -2.8748 0.1000
v 14.2827 -1.8749 0.1000
v 33.2471 -2.1110 0.1000
vt 0.000 1.000
vt 17.9659 1.000
vt 17.9659 0.000
vt 0.000 0.000
v 1.2311 -5.3776 0.1000
v 1.2358 -1.3068 0.1000
v 2.2358 -1.3079 0.1000
v 2.2311 -5.3788 0.1000
vt 0.000 1.000
vt 3.0709 1.000
vt 3.0709 0.000
vt 0.000 0.000
v 2.2358 -1.3079 0.1000
v 2.2311 -5.3788 0.1000
v 1.2311 -5.3776 0.1000
v 1.2358 -1.3068 0.1000
vt 0.000 1.000
vt 3.0709 1.000
vt 3.0709 0.000
vt 0.000 0.000
v 15.1873 -8.9490 0.1000
v 14.9172 -14.7559 0.1000
v 13.9183 -14.7094 0.1000
v 14.1884 -8.9026 0.1000
vt 0.000 1.000
vt 4.8131 1.000
vt 4.8131 0.000
vt 0.000 0.000
v 13.9183 -14.7094 0.1000
v 14.1884 -8.9026 0.1000
v 15.1873 -8.9490 0.1000
v 14.9172 -14.7559 0.1000
vt 0.000 1.000
vt 4.8131 1.000
vt 4.8131 0.000
vt 0.000 0.000
v 6.6920 -9.0636 0.1000
v 6.4168 -14.3856 0.1000
v 5.4181 -14.3340 0.1000
v 5.6934 -9.0119 0.1000
vt 0.000 1.000
vt 4.3292 1.000
vt 4.3292 0.000
vt 0.000 0.000
v 5.4181 -14.3340 0.1000
v 5.6934 -9.0119 0.1000
v 6.6920 -9.0636 0.1000
v 6.4168 -14.3856 0.1000
vt 0.000 1.000
vt 4.3292 1.000
vt 4.3292 0.000
vt 0.000 0.000
v 5.4657 -13.3390 0.1000
v 14.9624 -13.7556 0.1000
v 14.9186 -14.7546 0.1000
v 5.4219 -14.3381 0.1000
vt 0.000 1.000
vt 8.5059 1.000
vt 8.5059 0.000
vt 0.000 0.000
v 14.9186 -14.7546 0.1000
v 5.4219 -14.3381 0.1000
v 5.4657 -13.3390 0.1000
v 14.9624 -13.7556 0.1000
vt 0.000 1.000
vt 8.5059 1.000
vt 8.5059 0.000
vt 0.000 0.000
v 5.6604 -9.0437 0.1000
v 15.1580 -8.9187 0.1000
v 15.1711 -9.9186 0.1000
v 5.6735 -10.0436 0.1000
vt 0.000 1.000
vt 8.4984 1.000
vt 8.4984 0.000
vt 0.000 0.000
v 15.1711 -9.9186 0.1000
v 5.6735 -10.0436 0.1000
v 5.6604 -9.0437 0.1000
v 15.1580 -8.9187 0.1000
vt 0.000 1.000
vt 8.4984 1.000
vt 8.4984 0.000
vt 0.000 0.000
vn 0.000 0.000 1.000
s off
g lanes
f 1/1/1 3/3/1 2/2/1
f 1/1/1 4/4/1 3/3/1
f 5/5/1 7/7/1 6/6/1
f 5/5/1 8/8/1 7/7/1
f 9/9/1 11/11/1 10/10/1
f 9/9/1 12/12/1 11/11/1
f 13/13/1 15/15/1 14/14/1
f 13/13/1 16/16/1 15/15/1
f 17/17/1 19/19/1 18/18/1
f 17/17/1 20/20/1 19/19/1
f 21/21/1 23/23/1 22/22/1
f 21/21/1 24/24/1 23/23/1
f 25/25/1 27/27/1 26/26/1
f 25/25/1 28/28/1 27/27/1
f 29/29/1 31/31/1 30/30/1
f 29/29/1 32/32/1 31/31/1
f 33/33/1 35/35/1 34/34/1
f 33/33/1 36/36/1 35/35/1
f 37/37/1 39/39/1 38/38/1
f 37/37/1 40/40/1 39/39/1
f 41/41/1 43/43/1 42/42/1
f 41/41/1 44/44/1 43/43/1
f 45/45/1 47/47/1 46/46/1
f 45/45/1 48/48/1 47/47/1
f 49/49/1 51/51/1 50/50/1
f 49/49/1 52/52/1 51/51/1
f 53/53/1 55/55/1 54/54/1
f 53/53/1 56/56/1 55/55/1
f 57/57/1 59/59/1 58/58/1
f 57/57/1 60/60/1 59/59/1
f 61/61/1 63/63/1 62/62/1
f 61/61/1 64/64/1 63/63/1
f 65/65/1 67/67/1 66/66/1
f 65/65/1 68/68/1 67/67/1
f 69/69/1 71/71/1 70/70/1
f 69/69/1 72/72/1 71/71/1
f 73/73/1 75/75/1 74/74/1
f 73/73/1 76/76/1 75/75/1
f 77/77/1 79/79/1 78/78/1
f 77/77/1 80/80/1 79/79/1
