# The Great Editor v0.0.1
mtllib navgraph_1.mtl
o walls
v 46.6967 -20.4968 0.1000
v 34.4287 -20.3374 0.1000
v 34.4416 -19.3375 0.1000
v 46.7096 -19.4969 0.1000
vt 0.000 1.000
vt 11.2690 1.000
vt 11.2690 0.000
vt 0.000 0.000
v 34.4416 -19.3375 0.1000
v 46.7096 -19.4969 0.1000
v 46.6967 -20.4968 0.1000
v 34.4287 -20.3374 0.1000
vt 0.000 1.000
vt 11.2690 1.000
vt 11.2690 0.000
vt 0.000 0.000
v 34.4481 -20.3566 0.1000
v 34.2628 -13.1306 0.1000
v 35.2624 -13.1049 0.1000
v 35.4478 -20.3310 0.1000
vt 0.000 1.000
vt 6.2284 1.000
vt 6.2284 0.000
vt 0.000 0.000
v 35.2624 -13.1049 0.1000
v 35.4478 -20.3310 0.1000
v 34.4481 -20.3566 0.1000
v 34.2628 -13.1306 0.1000
vt 0.000 1.000
vt 6.2284 1.000
vt 6.2284 0.000
vt 0.000 0.000
v 34.2836 -13.1095 0.1000
v 47.5338 -13.3244 0.1000
v 47.5176 -14.3243 0.1000
v 34.2674 -14.1094 0.1000
vt 0.000 1.000
vt 12.2520 1.000
vt 12.2520 0.000
vt 0.000 0.000
v 47.5176 -14.3243 0.1000
v 34.2674 -14.1094 0.1000
v 34.2836 -13.1095 0.1000
v 47.5338 -13.3244 0.1000
vt 0.000 1.000
vt 12.2520 1.000
vt 12.2520 0.000
vt 0.000 0.000
vn 0.000 0.000 1.000
s off
g lanes
f 1/1/1 3/3/1 2/2/1
f 1/1/1 4/4/1 3/3/1
f 5/5/1 7/7/1 6/6/1
f 5/5/1 8/8/1 7/7/1
f 9/9/1 11/11/1 10/10/1
f 9/9/1 12/12/1 11/11/1
f 13/13/1 15/15/1 14/14/1
f 13/13/1 16/16/1 15/15/1
f 17/17/1 19/19/1 18/18/1
f 17/17/1 20/20/1 19/19/1
f 21/21/1 23/23/1 22/22/1
f 21/21/1 24/24/1 23/23/1
