# The Great Editor v0.0.1
mtllib floor_1.mtl
o floor_1
v 0.03301938233720481 -0.07220144897064297 0
v 0.03301938233720481 -0.07220144897064297 -0.1
v 35.0537334447438 -0.10522083130784779 0
v 35.0537334447438 -0.10522083130784779 -0.1
v 34.98769468006939 -15.156526767307307 0
v 34.98769468006939 -15.156526767307307 -0.1
v 0.03301938233720481 -15.123507384970102 0
v 0.03301938233720481 -15.123507384970102 -0.1
vt 0.03301938233720481 -0.07220144897064297 0
vt 35.0537334447438 -0.10522083130784779 0
vt 34.98769468006939 -15.156526767307307 0
vt 0.03301938233720481 -15.123507384970102 0
vn 0 0 1
vn 0 0 -1
usemtl floor_1
s off
f 1/1/1 7/4/1 5/3/1
f 6/3/2 8/4/2 2/1/2
f 1/1/1 5/3/1 3/2/1
f 4/2/2 6/3/2 2/1/2
