# The Great Editor v0.0.1
mtllib floor_2.mtl
o floor_2
v 0.0471469790062911 -0.10309339417918584 0
v 0.0471469790062911 -0.10309339417918584 -0.1
v 50.05174288040193 -0.15024037318547695 0
v 50.05174288040193 -0.15024037318547695 -0.1
v 49.95744892238934 -21.64136330622284 0
v 49.95744892238934 -21.64136330622284 -0.1
v 0.0471469790062911 -21.594216327216547 0
v 0.0471469790062911 -21.594216327216547 -0.1
vt 0.0471469790062911 -0.10309339417918584 0
vt 50.05174288040193 -0.15024037318547695 0
vt 49.95744892238934 -21.64136330622284 0
vt 0.0471469790062911 -21.594216327216547 0
vn 0 0 1
vn 0 0 -1
usemtl floor_2
s off
f 1/1/1 7/4/1 5/3/1
f 6/3/2 8/4/2 2/1/2
f 1/1/1 5/3/1 3/2/1
f 4/2/2 6/3/2 2/1/2
